{
	"asset":{
		"generator":"Khronos glTF Blender I/O v4.5.47",
		"version":"2.0"
	},
	"extensionsUsed":[
		"KHR_materials_specular"
	],
	"scene":0,
	"scenes":[
		{
			"name":"Scene",
			"nodes":[
				0
			]
		}
	],
	"nodes":[
		{
			"mesh":0,
			"name":"TreeBark_03_Clean_MergedBake_Bake1.001_0",
			"scale":[
				0.3414691090583801,
				0.3414691984653473,
				0.3414691984653473
			]
		}
	],
	"materials":[
		{
			"doubleSided":true,
			"name":"MergedBake_Bake1.001",
			"pbrMetallicRoughness":{
				"baseColorTexture":{
					"index":0
				},
				"metallicFactor":0,
				"metallicRoughnessTexture":{
					"index":1
				}
			}
		},
		{
			"doubleSided":true,
			"name":"Material.011",
			"pbrMetallicRoughness":{
				"baseColorTexture":{
					"index":2
				},
				"metallicFactor":0
			}
		},
		{
			"doubleSided":true,
			"name":"Tree_03_Ground_Bake1_baked",
			"pbrMetallicRoughness":{
				"baseColorTexture":{
					"index":3
				},
				"metallicFactor":0,
				"metallicRoughnessTexture":{
					"index":4
				}
			}
		},
		{
			"doubleSided":true,
			"name":"Tree_03_Ground_Bake1_baked.001",
			"pbrMetallicRoughness":{
				"baseColorTexture":{
					"index":5
				},
				"metallicFactor":0,
				"metallicRoughnessTexture":{
					"index":6
				}
			}
		},
		{
			"doubleSided":true,
			"name":"MergedBake_Bake1.002",
			"pbrMetallicRoughness":{
				"baseColorTexture":{
					"index":7
				},
				"metallicFactor":0,
				"metallicRoughnessTexture":{
					"index":8
				}
			}
		},
		{
			"doubleSided":true,
			"extensions":{
				"KHR_materials_specular":{
					"specularFactor":0
				}
			},
			"name":"Pack3",
			"pbrMetallicRoughness":{
				"baseColorTexture":{
					"index":9
				},
				"metallicFactor":0
			}
		}
	],
	"meshes":[
		{
			"name":"TreeBark_03_Clean_MergedBake_Bake1.001_0",
			"primitives":[
				{
					"attributes":{
						"POSITION":0,
						"NORMAL":1,
						"TEXCOORD_0":2,
						"TEXCOORD_1":3
					},
					"indices":4,
					"material":0
				},
				{
					"attributes":{
						"POSITION":5,
						"NORMAL":6,
						"TEXCOORD_0":7,
						"TEXCOORD_1":8
					},
					"indices":9,
					"material":1
				},
				{
					"attributes":{
						"POSITION":10,
						"NORMAL":11,
						"TEXCOORD_0":12,
						"TEXCOORD_1":13
					},
					"indices":14,
					"material":2
				},
				{
					"attributes":{
						"POSITION":15,
						"NORMAL":16,
						"TEXCOORD_0":17,
						"TEXCOORD_1":18
					},
					"indices":19,
					"material":3
				},
				{
					"attributes":{
						"POSITION":20,
						"NORMAL":21,
						"TEXCOORD_0":22,
						"TEXCOORD_1":23
					},
					"indices":4,
					"material":4
				},
				{
					"attributes":{
						"POSITION":24,
						"NORMAL":25,
						"TEXCOORD_0":26,
						"TEXCOORD_1":27
					},
					"indices":28,
					"material":5
				}
			]
		}
	],
	"textures":[
		{
			"sampler":0,
			"source":0
		},
		{
			"sampler":0,
			"source":1
		},
		{
			"sampler":0,
			"source":2
		},
		{
			"sampler":0,
			"source":3
		},
		{
			"sampler":0,
			"source":4
		},
		{
			"sampler":0,
			"source":3
		},
		{
			"sampler":0,
			"source":4
		},
		{
			"sampler":0,
			"source":0
		},
		{
			"sampler":0,
			"source":1
		},
		{
			"sampler":0,
			"source":5
		}
	],
	"images":[
		{
			"mimeType":"image/png",
			"name":"MergedBake_Bake1.001_baseColor",
			"uri":"textures/MergedBake_Bake1.001_baseColor.png"
		},
		{
			"mimeType":"image/png",
			"name":"MergedBake_Bake1.001_metallicRoughness",
			"uri":"textures/MergedBake_Bake1.001_metallicRoughness.png"
		},
		{
			"mimeType":"image/png",
			"name":"Material.001_baseColor",
			"uri":"textures/Material.001_baseColor.png"
		},
		{
			"mimeType":"image/png",
			"name":"Tree_03_Ground_Bake1_baked_baseColor",
			"uri":"textures/Tree_03_Ground_Bake1_baked_baseColor.png"
		},
		{
			"mimeType":"image/png",
			"name":"Tree_03_Ground_Bake1_baked_metallicRoughness",
			"uri":"textures/Tree_03_Ground_Bake1_baked_metallicRoughness.png"
		},
		{
			"mimeType":"image/png",
			"name":"Pack3_baseColor",
			"uri":"textures/Pack3_baseColor.png"
		}
	],
	"accessors":[
		{
			"bufferView":0,
			"componentType":5126,
			"count":5070,
			"max":[
				42.65668869018555,
				17.05380630493164,
				47.56909942626953
			],
			"min":[
				29.20737075805664,
				-0.17109845578670502,
				-45.016693115234375
			],
			"type":"VEC3"
		},
		{
			"bufferView":1,
			"componentType":5126,
			"count":5070,
			"type":"VEC3"
		},
		{
			"bufferView":2,
			"componentType":5126,
			"count":5070,
			"type":"VEC2"
		},
		{
			"bufferView":3,
			"componentType":5126,
			"count":5070,
			"type":"VEC2"
		},
		{
			"bufferView":4,
			"componentType":5123,
			"count":17376,
			"type":"SCALAR"
		},
		{
			"bufferView":5,
			"componentType":5126,
			"count":5147,
			"max":[
				84.08189392089844,
				0.1678406298160553,
				92.10590362548828
			],
			"min":[
				-83.84446716308594,
				-0.010695574805140495,
				-95.84773254394531
			],
			"type":"VEC3"
		},
		{
			"bufferView":6,
			"componentType":5126,
			"count":5147,
			"type":"VEC3"
		},
		{
			"bufferView":7,
			"componentType":5126,
			"count":5147,
			"type":"VEC2"
		},
		{
			"bufferView":8,
			"componentType":5126,
			"count":5147,
			"type":"VEC2"
		},
		{
			"bufferView":9,
			"componentType":5123,
			"count":11754,
			"type":"SCALAR"
		},
		{
			"bufferView":10,
			"componentType":5126,
			"count":1314,
			"max":[
				60.49447250366211,
				0.042339373379945755,
				68.47703552246094
			],
			"min":[
				26.80799102783203,
				-0.13445614278316498,
				-58.54436492919922
			],
			"type":"VEC3"
		},
		{
			"bufferView":11,
			"componentType":5126,
			"count":1314,
			"type":"VEC3"
		},
		{
			"bufferView":12,
			"componentType":5126,
			"count":1314,
			"type":"VEC2"
		},
		{
			"bufferView":13,
			"componentType":5126,
			"count":1314,
			"type":"VEC2"
		},
		{
			"bufferView":14,
			"componentType":5123,
			"count":6912,
			"type":"SCALAR"
		},
		{
			"bufferView":15,
			"componentType":5126,
			"count":292,
			"max":[
				-27.17192268371582,
				-0.019674507901072502,
				50.12091827392578
			],
			"min":[
				-42.2729606628418,
				-0.2707580327987671,
				-46.459083557128906
			],
			"type":"VEC3"
		},
		{
			"bufferView":16,
			"componentType":5126,
			"count":292,
			"type":"VEC3"
		},
		{
			"bufferView":17,
			"componentType":5126,
			"count":292,
			"type":"VEC2"
		},
		{
			"bufferView":18,
			"componentType":5126,
			"count":292,
			"type":"VEC2"
		},
		{
			"bufferView":19,
			"componentType":5123,
			"count":1536,
			"type":"SCALAR"
		},
		{
			"bufferView":20,
			"componentType":5126,
			"count":5070,
			"max":[
				-30.88462257385254,
				17.654794692993164,
				47.161949157714844
			],
			"min":[
				-41.58658218383789,
				-0.10582485049962997,
				-43.73122787475586
			],
			"type":"VEC3"
		},
		{
			"bufferView":21,
			"componentType":5126,
			"count":5070,
			"type":"VEC3"
		},
		{
			"bufferView":22,
			"componentType":5126,
			"count":5070,
			"type":"VEC2"
		},
		{
			"bufferView":23,
			"componentType":5126,
			"count":5070,
			"type":"VEC2"
		},
		{
			"bufferView":24,
			"componentType":5126,
			"count":138207,
			"max":[
				65.48419189453125,
				29.206144332885742,
				81.13666534423828
			],
			"min":[
				-73.98646545410156,
				-0.34958839416503906,
				-77.62340545654297
			],
			"type":"VEC3"
		},
		{
			"bufferView":25,
			"componentType":5126,
			"count":138207,
			"type":"VEC3"
		},
		{
			"bufferView":26,
			"componentType":5126,
			"count":138207,
			"type":"VEC2"
		},
		{
			"bufferView":27,
			"componentType":5126,
			"count":138207,
			"type":"VEC2"
		},
		{
			"bufferView":28,
			"componentType":5125,
			"count":276546,
			"type":"SCALAR"
		}
	],
	"bufferViews":[
		{
			"buffer":0,
			"byteLength":60840,
			"byteOffset":0,
			"target":34962
		},
		{
			"buffer":0,
			"byteLength":60840,
			"byteOffset":60840,
			"target":34962
		},
		{
			"buffer":0,
			"byteLength":40560,
			"byteOffset":121680,
			"target":34962
		},
		{
			"buffer":0,
			"byteLength":40560,
			"byteOffset":162240,
			"target":34962
		},
		{
			"buffer":0,
			"byteLength":34752,
			"byteOffset":202800,
			"target":34963
		},
		{
			"buffer":0,
			"byteLength":61764,
			"byteOffset":237552,
			"target":34962
		},
		{
			"buffer":0,
			"byteLength":61764,
			"byteOffset":299316,
			"target":34962
		},
		{
			"buffer":0,
			"byteLength":41176,
			"byteOffset":361080,
			"target":34962
		},
		{
			"buffer":0,
			"byteLength":41176,
			"byteOffset":402256,
			"target":34962
		},
		{
			"buffer":0,
			"byteLength":23508,
			"byteOffset":443432,
			"target":34963
		},
		{
			"buffer":0,
			"byteLength":15768,
			"byteOffset":466940,
			"target":34962
		},
		{
			"buffer":0,
			"byteLength":15768,
			"byteOffset":482708,
			"target":34962
		},
		{
			"buffer":0,
			"byteLength":10512,
			"byteOffset":498476,
			"target":34962
		},
		{
			"buffer":0,
			"byteLength":10512,
			"byteOffset":508988,
			"target":34962
		},
		{
			"buffer":0,
			"byteLength":13824,
			"byteOffset":519500,
			"target":34963
		},
		{
			"buffer":0,
			"byteLength":3504,
			"byteOffset":533324,
			"target":34962
		},
		{
			"buffer":0,
			"byteLength":3504,
			"byteOffset":536828,
			"target":34962
		},
		{
			"buffer":0,
			"byteLength":2336,
			"byteOffset":540332,
			"target":34962
		},
		{
			"buffer":0,
			"byteLength":2336,
			"byteOffset":542668,
			"target":34962
		},
		{
			"buffer":0,
			"byteLength":3072,
			"byteOffset":545004,
			"target":34963
		},
		{
			"buffer":0,
			"byteLength":60840,
			"byteOffset":548076,
			"target":34962
		},
		{
			"buffer":0,
			"byteLength":60840,
			"byteOffset":608916,
			"target":34962
		},
		{
			"buffer":0,
			"byteLength":40560,
			"byteOffset":669756,
			"target":34962
		},
		{
			"buffer":0,
			"byteLength":40560,
			"byteOffset":710316,
			"target":34962
		},
		{
			"buffer":0,
			"byteLength":1658484,
			"byteOffset":750876,
			"target":34962
		},
		{
			"buffer":0,
			"byteLength":1658484,
			"byteOffset":2409360,
			"target":34962
		},
		{
			"buffer":0,
			"byteLength":1105656,
			"byteOffset":4067844,
			"target":34962
		},
		{
			"buffer":0,
			"byteLength":1105656,
			"byteOffset":5173500,
			"target":34962
		},
		{
			"buffer":0,
			"byteLength":1106184,
			"byteOffset":6279156,
			"target":34963
		}
	],
	"samplers":[
		{
			"magFilter":9729,
			"minFilter":9987
		}
	],
	"buffers":[
		{
			"byteLength":7385340,
			"uri":"cementScenario.bin"
		}
	]
}
