{
	"asset":{
		"generator":"Khronos glTF Blender I/O v4.5.47",
		"version":"2.0"
	},
	"extensionsUsed":[
		"KHR_texture_transform"
	],
	"extensionsRequired":[
		"KHR_texture_transform"
	],
	"scene":0,
	"scenes":[
		{
			"name":"Scene",
			"nodes":[
				0
			]
		}
	],
	"nodes":[
		{
			"mesh":0,
			"name":"Plane.001"
		}
	],
	"materials":[
		{
			"doubleSided":true,
			"name":"Material.012",
			"normalTexture":{
				"extensions":{
					"KHR_texture_transform":{
						"scale":[
							5,
							5
						]
					}
				},
				"index":0
			},
			"occlusionTexture":{
				"extensions":{
					"KHR_texture_transform":{
						"scale":[
							5,
							5
						]
					}
				},
				"index":1
			},
			"pbrMetallicRoughness":{
				"baseColorTexture":{
					"extensions":{
						"KHR_texture_transform":{
							"scale":[
								5,
								5
							]
						}
					},
					"index":2
				},
				"metallicRoughnessTexture":{
					"extensions":{
						"KHR_texture_transform":{
							"scale":[
								5,
								5
							]
						}
					},
					"index":1
				}
			}
		},
		{
			"doubleSided":true,
			"name":"Chair",
			"normalTexture":{
				"index":3
			},
			"pbrMetallicRoughness":{
				"baseColorTexture":{
					"index":4
				},
				"metallicRoughnessTexture":{
					"index":5
				}
			}
		},
		{
			"doubleSided":true,
			"name":"Umbrella",
			"normalTexture":{
				"index":6
			},
			"pbrMetallicRoughness":{
				"baseColorTexture":{
					"index":7
				},
				"metallicRoughnessTexture":{
					"index":8
				}
			}
		},
		{
			"doubleSided":true,
			"name":"Coolbox",
			"normalTexture":{
				"index":9,
				"texCoord":1
			},
			"pbrMetallicRoughness":{
				"baseColorTexture":{
					"index":10
				},
				"metallicRoughnessTexture":{
					"index":11
				}
			}
		},
		{
			"doubleSided":true,
			"name":"Boombox",
			"normalTexture":{
				"index":12
			},
			"pbrMetallicRoughness":{
				"baseColorTexture":{
					"index":13
				},
				"metallicRoughnessTexture":{
					"index":14
				}
			}
		},
		{
			"doubleSided":true,
			"name":"Material.013",
			"pbrMetallicRoughness":{
				"baseColorTexture":{
					"index":15
				},
				"metallicFactor":0,
				"roughnessFactor":0.8211145401000977
			}
		},
		{
			"doubleSided":true,
			"name":"Tabla_de_surf",
			"normalTexture":{
				"index":16
			},
			"pbrMetallicRoughness":{
				"baseColorTexture":{
					"index":17
				},
				"metallicRoughnessTexture":{
					"index":18
				},
				"roughnessFactor":0.7906859517097473
			}
		}
	],
	"meshes":[
		{
			"name":"Plane",
			"primitives":[
				{
					"attributes":{
						"POSITION":0,
						"NORMAL":1,
						"TEXCOORD_0":2,
						"TEXCOORD_1":3,
						"TEXCOORD_2":4
					},
					"indices":5,
					"material":0
				},
				{
					"attributes":{
						"POSITION":6,
						"NORMAL":7,
						"TEXCOORD_0":8,
						"TEXCOORD_1":9,
						"TEXCOORD_2":10
					},
					"indices":11,
					"material":1
				},
				{
					"attributes":{
						"POSITION":12,
						"NORMAL":13,
						"TEXCOORD_0":14,
						"TEXCOORD_1":15,
						"TEXCOORD_2":16
					},
					"indices":17,
					"material":2
				},
				{
					"attributes":{
						"POSITION":18,
						"NORMAL":19,
						"TEXCOORD_0":20,
						"TEXCOORD_1":21,
						"TEXCOORD_2":22
					},
					"indices":23,
					"material":3
				},
				{
					"attributes":{
						"POSITION":24,
						"NORMAL":25,
						"TEXCOORD_0":26,
						"TEXCOORD_1":27,
						"TEXCOORD_2":28
					},
					"indices":29,
					"material":4
				},
				{
					"attributes":{
						"POSITION":30,
						"NORMAL":31,
						"TEXCOORD_0":32,
						"TEXCOORD_1":33,
						"TEXCOORD_2":34
					},
					"indices":35,
					"material":5
				},
				{
					"attributes":{
						"POSITION":36,
						"NORMAL":37,
						"TEXCOORD_0":38,
						"TEXCOORD_1":39,
						"TEXCOORD_2":40
					},
					"indices":41,
					"material":6
				}
			]
		}
	],
	"textures":[
		{
			"sampler":0,
			"source":0
		},
		{
			"sampler":0,
			"source":1
		},
		{
			"sampler":0,
			"source":2
		},
		{
			"sampler":0,
			"source":3
		},
		{
			"sampler":0,
			"source":4
		},
		{
			"sampler":0,
			"source":5
		},
		{
			"sampler":0,
			"source":6
		},
		{
			"sampler":0,
			"source":7
		},
		{
			"sampler":0,
			"source":8
		},
		{
			"sampler":0,
			"source":9
		},
		{
			"sampler":0,
			"source":10
		},
		{
			"sampler":0,
			"source":11
		},
		{
			"sampler":0,
			"source":12
		},
		{
			"sampler":0,
			"source":13
		},
		{
			"sampler":0,
			"source":14
		},
		{
			"sampler":0,
			"source":15
		},
		{
			"sampler":0,
			"source":16
		},
		{
			"sampler":0,
			"source":17
		},
		{
			"sampler":0,
			"source":18
		}
	],
	"images":[
		{
			"mimeType":"image/png",
			"name":"Material_normal",
			"uri":"textures/Material_normal.png"
		},
		{
			"mimeType":"image/png",
			"name":"Material_metallicRoughness",
			"uri":"textures/Material_metallicRoughness.png"
		},
		{
			"mimeType":"image/png",
			"name":"Material_baseColor",
			"uri":"textures/Material_baseColor.png"
		},
		{
			"mimeType":"image/png",
			"name":"Chair_normal",
			"uri":"textures/Chair_normal.png"
		},
		{
			"mimeType":"image/png",
			"name":"Chair_baseColor",
			"uri":"textures/Chair_baseColor.png"
		},
		{
			"mimeType":"image/png",
			"name":"Chair_metallicRoughness",
			"uri":"textures/Chair_metallicRoughness.png"
		},
		{
			"mimeType":"image/png",
			"name":"Umbrella_normal",
			"uri":"textures/Umbrella_normal.png"
		},
		{
			"mimeType":"image/png",
			"name":"Umbrella_baseColor",
			"uri":"textures/Umbrella_baseColor.png"
		},
		{
			"mimeType":"image/png",
			"name":"Umbrella_metallicRoughness",
			"uri":"textures/Umbrella_metallicRoughness.png"
		},
		{
			"mimeType":"image/png",
			"name":"Coolbox_normal",
			"uri":"textures/Coolbox_normal.png"
		},
		{
			"mimeType":"image/png",
			"name":"Coolbox_baseColor",
			"uri":"textures/Coolbox_baseColor.png"
		},
		{
			"mimeType":"image/png",
			"name":"Coolbox_metallicRoughness",
			"uri":"textures/Coolbox_metallicRoughness.png"
		},
		{
			"mimeType":"image/png",
			"name":"Boombox_normal",
			"uri":"textures/Boombox_normal.png"
		},
		{
			"mimeType":"image/png",
			"name":"Boombox_baseColor",
			"uri":"textures/Boombox_baseColor.png"
		},
		{
			"mimeType":"image/png",
			"name":"Boombox_metallicRoughness",
			"uri":"textures/Boombox_metallicRoughness.png"
		},
		{
			"mimeType":"image/png",
			"name":"Material.001_baseColor",
			"uri":"textures/Material.001_baseColor.png"
		},
		{
			"mimeType":"image/png",
			"name":"Tabla_de_surf_normal",
			"uri":"textures/Tabla_de_surf_normal.png"
		},
		{
			"mimeType":"image/jpeg",
			"name":"Tabla_de_surf_baseColor",
			"uri":"textures/Tabla_de_surf_baseColor.jpg"
		},
		{
			"mimeType":"image/png",
			"name":"Tabla_de_surf_metallicRoughness",
			"uri":"textures/Tabla_de_surf_metallicRoughness.png"
		}
	],
	"accessors":[
		{
			"bufferView":0,
			"componentType":5126,
			"count":8,
			"max":[
				33.00876998901367,
				0,
				31.20920753479004
			],
			"min":[
				-32.60295486450195,
				0,
				-31.20920753479004
			],
			"type":"VEC3"
		},
		{
			"bufferView":1,
			"componentType":5126,
			"count":8,
			"type":"VEC3"
		},
		{
			"bufferView":2,
			"componentType":5126,
			"count":8,
			"type":"VEC2"
		},
		{
			"bufferView":3,
			"componentType":5126,
			"count":8,
			"type":"VEC2"
		},
		{
			"bufferView":4,
			"componentType":5126,
			"count":8,
			"type":"VEC2"
		},
		{
			"bufferView":5,
			"componentType":5123,
			"count":24,
			"type":"SCALAR"
		},
		{
			"bufferView":6,
			"componentType":5126,
			"count":94456,
			"max":[
				12.517542839050293,
				1.390364646911621,
				13.32957649230957
			],
			"min":[
				-12.940351486206055,
				-0.11367962509393692,
				-15.404245376586914
			],
			"type":"VEC3"
		},
		{
			"bufferView":7,
			"componentType":5126,
			"count":94456,
			"type":"VEC3"
		},
		{
			"bufferView":8,
			"componentType":5126,
			"count":94456,
			"type":"VEC2"
		},
		{
			"bufferView":9,
			"componentType":5126,
			"count":94456,
			"type":"VEC2"
		},
		{
			"bufferView":10,
			"componentType":5126,
			"count":94456,
			"type":"VEC2"
		},
		{
			"bufferView":11,
			"componentType":5125,
			"count":414486,
			"type":"SCALAR"
		},
		{
			"bufferView":12,
			"componentType":5126,
			"count":17015,
			"max":[
				13.479022979736328,
				3.2606327533721924,
				9.833454132080078
			],
			"min":[
				-12.225467681884766,
				-0.15179049968719482,
				-14.339513778686523
			],
			"type":"VEC3"
		},
		{
			"bufferView":13,
			"componentType":5126,
			"count":17015,
			"type":"VEC3"
		},
		{
			"bufferView":14,
			"componentType":5126,
			"count":17015,
			"type":"VEC2"
		},
		{
			"bufferView":15,
			"componentType":5126,
			"count":17015,
			"type":"VEC2"
		},
		{
			"bufferView":16,
			"componentType":5126,
			"count":17015,
			"type":"VEC2"
		},
		{
			"bufferView":17,
			"componentType":5123,
			"count":80640,
			"type":"SCALAR"
		},
		{
			"bufferView":18,
			"componentType":5126,
			"count":67459,
			"max":[
				10.614092826843262,
				0.8909855484962463,
				11.09467601776123
			],
			"min":[
				-10.873268127441406,
				-0.014864221215248108,
				-6.253398895263672
			],
			"type":"VEC3"
		},
		{
			"bufferView":19,
			"componentType":5126,
			"count":67459,
			"type":"VEC3"
		},
		{
			"bufferView":20,
			"componentType":5126,
			"count":67459,
			"type":"VEC2"
		},
		{
			"bufferView":21,
			"componentType":5126,
			"count":67459,
			"type":"VEC2"
		},
		{
			"bufferView":22,
			"componentType":5126,
			"count":67459,
			"type":"VEC2"
		},
		{
			"bufferView":23,
			"componentType":5125,
			"count":253815,
			"type":"SCALAR"
		},
		{
			"bufferView":24,
			"componentType":5126,
			"count":34583,
			"max":[
				8.74468994140625,
				0.9235585331916809,
				11.737037658691406
			],
			"min":[
				-9.109174728393555,
				-0.0006426775362342596,
				-3.2361350059509277
			],
			"type":"VEC3"
		},
		{
			"bufferView":25,
			"componentType":5126,
			"count":34583,
			"type":"VEC3"
		},
		{
			"bufferView":26,
			"componentType":5126,
			"count":34583,
			"type":"VEC2"
		},
		{
			"bufferView":27,
			"componentType":5126,
			"count":34583,
			"type":"VEC2"
		},
		{
			"bufferView":28,
			"componentType":5126,
			"count":34583,
			"type":"VEC2"
		},
		{
			"bufferView":29,
			"componentType":5123,
			"count":148338,
			"type":"SCALAR"
		},
		{
			"bufferView":30,
			"componentType":5126,
			"count":69500,
			"max":[
				25.24907684326172,
				10.637084007263184,
				27.21596908569336
			],
			"min":[
				-24.99380111694336,
				-0.20578642189502716,
				-24.467031478881836
			],
			"type":"VEC3"
		},
		{
			"bufferView":31,
			"componentType":5126,
			"count":69500,
			"type":"VEC3"
		},
		{
			"bufferView":32,
			"componentType":5126,
			"count":69500,
			"type":"VEC2"
		},
		{
			"bufferView":33,
			"componentType":5126,
			"count":69500,
			"type":"VEC2"
		},
		{
			"bufferView":34,
			"componentType":5126,
			"count":69500,
			"type":"VEC2"
		},
		{
			"bufferView":35,
			"componentType":5125,
			"count":158964,
			"type":"SCALAR"
		},
		{
			"bufferView":36,
			"componentType":5126,
			"count":26290,
			"max":[
				15.165117263793945,
				2.9333319664001465,
				1.7812671661376953
			],
			"min":[
				-11.342802047729492,
				-0.6268738508224487,
				-20.889192581176758
			],
			"type":"VEC3"
		},
		{
			"bufferView":37,
			"componentType":5126,
			"count":26290,
			"type":"VEC3"
		},
		{
			"bufferView":38,
			"componentType":5126,
			"count":26290,
			"type":"VEC2"
		},
		{
			"bufferView":39,
			"componentType":5126,
			"count":26290,
			"type":"VEC2"
		},
		{
			"bufferView":40,
			"componentType":5126,
			"count":26290,
			"type":"VEC2"
		},
		{
			"bufferView":41,
			"componentType":5123,
			"count":69696,
			"type":"SCALAR"
		}
	],
	"bufferViews":[
		{
			"buffer":0,
			"byteLength":96,
			"byteOffset":0,
			"target":34962
		},
		{
			"buffer":0,
			"byteLength":96,
			"byteOffset":96,
			"target":34962
		},
		{
			"buffer":0,
			"byteLength":64,
			"byteOffset":192,
			"target":34962
		},
		{
			"buffer":0,
			"byteLength":64,
			"byteOffset":256,
			"target":34962
		},
		{
			"buffer":0,
			"byteLength":64,
			"byteOffset":320,
			"target":34962
		},
		{
			"buffer":0,
			"byteLength":48,
			"byteOffset":384,
			"target":34963
		},
		{
			"buffer":0,
			"byteLength":1133472,
			"byteOffset":432,
			"target":34962
		},
		{
			"buffer":0,
			"byteLength":1133472,
			"byteOffset":1133904,
			"target":34962
		},
		{
			"buffer":0,
			"byteLength":755648,
			"byteOffset":2267376,
			"target":34962
		},
		{
			"buffer":0,
			"byteLength":755648,
			"byteOffset":3023024,
			"target":34962
		},
		{
			"buffer":0,
			"byteLength":755648,
			"byteOffset":3778672,
			"target":34962
		},
		{
			"buffer":0,
			"byteLength":1657944,
			"byteOffset":4534320,
			"target":34963
		},
		{
			"buffer":0,
			"byteLength":204180,
			"byteOffset":6192264,
			"target":34962
		},
		{
			"buffer":0,
			"byteLength":204180,
			"byteOffset":6396444,
			"target":34962
		},
		{
			"buffer":0,
			"byteLength":136120,
			"byteOffset":6600624,
			"target":34962
		},
		{
			"buffer":0,
			"byteLength":136120,
			"byteOffset":6736744,
			"target":34962
		},
		{
			"buffer":0,
			"byteLength":136120,
			"byteOffset":6872864,
			"target":34962
		},
		{
			"buffer":0,
			"byteLength":161280,
			"byteOffset":7008984,
			"target":34963
		},
		{
			"buffer":0,
			"byteLength":809508,
			"byteOffset":7170264,
			"target":34962
		},
		{
			"buffer":0,
			"byteLength":809508,
			"byteOffset":7979772,
			"target":34962
		},
		{
			"buffer":0,
			"byteLength":539672,
			"byteOffset":8789280,
			"target":34962
		},
		{
			"buffer":0,
			"byteLength":539672,
			"byteOffset":9328952,
			"target":34962
		},
		{
			"buffer":0,
			"byteLength":539672,
			"byteOffset":9868624,
			"target":34962
		},
		{
			"buffer":0,
			"byteLength":1015260,
			"byteOffset":10408296,
			"target":34963
		},
		{
			"buffer":0,
			"byteLength":414996,
			"byteOffset":11423556,
			"target":34962
		},
		{
			"buffer":0,
			"byteLength":414996,
			"byteOffset":11838552,
			"target":34962
		},
		{
			"buffer":0,
			"byteLength":276664,
			"byteOffset":12253548,
			"target":34962
		},
		{
			"buffer":0,
			"byteLength":276664,
			"byteOffset":12530212,
			"target":34962
		},
		{
			"buffer":0,
			"byteLength":276664,
			"byteOffset":12806876,
			"target":34962
		},
		{
			"buffer":0,
			"byteLength":296676,
			"byteOffset":13083540,
			"target":34963
		},
		{
			"buffer":0,
			"byteLength":834000,
			"byteOffset":13380216,
			"target":34962
		},
		{
			"buffer":0,
			"byteLength":834000,
			"byteOffset":14214216,
			"target":34962
		},
		{
			"buffer":0,
			"byteLength":556000,
			"byteOffset":15048216,
			"target":34962
		},
		{
			"buffer":0,
			"byteLength":556000,
			"byteOffset":15604216,
			"target":34962
		},
		{
			"buffer":0,
			"byteLength":556000,
			"byteOffset":16160216,
			"target":34962
		},
		{
			"buffer":0,
			"byteLength":635856,
			"byteOffset":16716216,
			"target":34963
		},
		{
			"buffer":0,
			"byteLength":315480,
			"byteOffset":17352072,
			"target":34962
		},
		{
			"buffer":0,
			"byteLength":315480,
			"byteOffset":17667552,
			"target":34962
		},
		{
			"buffer":0,
			"byteLength":210320,
			"byteOffset":17983032,
			"target":34962
		},
		{
			"buffer":0,
			"byteLength":210320,
			"byteOffset":18193352,
			"target":34962
		},
		{
			"buffer":0,
			"byteLength":210320,
			"byteOffset":18403672,
			"target":34962
		},
		{
			"buffer":0,
			"byteLength":139392,
			"byteOffset":18613992,
			"target":34963
		}
	],
	"samplers":[
		{
			"magFilter":9729,
			"minFilter":9987
		}
	],
	"buffers":[
		{
			"byteLength":18753384,
			"uri":"sandScenario.bin"
		}
	]
}
