{
	"asset":{
		"generator":"Khronos glTF Blender I/O v4.5.47",
		"version":"2.0"
	},
	"scene":0,
	"scenes":[
		{
			"name":"Scene",
			"nodes":[
				0
			]
		}
	],
	"nodes":[
		{
			"mesh":0,
			"name":"Ball1_Mat_0"
		}
	],
	"materials":[
		{
			"doubleSided":true,
			"name":"material",
			"pbrMetallicRoughness":{
				"baseColorTexture":{
					"index":0
				},
				"metallicFactor":0,
				"roughnessFactor":0.6000000238418579
			}
		}
	],
	"meshes":[
		{
			"name":"Ball1_Mat_0",
			"primitives":[
				{
					"attributes":{
						"POSITION":0,
						"NORMAL":1,
						"TEXCOORD_0":2,
						"TEXCOORD_1":3
					},
					"indices":4,
					"material":0
				}
			]
		}
	],
	"textures":[
		{
			"sampler":0,
			"source":0
		}
	],
	"images":[
		{
			"mimeType":"image/png",
			"name":"material_baseColor",
			"uri":"textures/material_baseColor.png"
		}
	],
	"accessors":[
		{
			"bufferView":0,
			"componentType":5126,
			"count":859,
			"max":[
				2,
				2,
				2
			],
			"min":[
				-2,
				-2,
				-2
			],
			"type":"VEC3"
		},
		{
			"bufferView":1,
			"componentType":5126,
			"count":859,
			"type":"VEC3"
		},
		{
			"bufferView":2,
			"componentType":5126,
			"count":859,
			"type":"VEC2"
		},
		{
			"bufferView":3,
			"componentType":5126,
			"count":859,
			"type":"VEC2"
		},
		{
			"bufferView":4,
			"componentType":5123,
			"count":4560,
			"type":"SCALAR"
		}
	],
	"bufferViews":[
		{
			"buffer":0,
			"byteLength":10308,
			"byteOffset":0,
			"target":34962
		},
		{
			"buffer":0,
			"byteLength":10308,
			"byteOffset":10308,
			"target":34962
		},
		{
			"buffer":0,
			"byteLength":6872,
			"byteOffset":20616,
			"target":34962
		},
		{
			"buffer":0,
			"byteLength":6872,
			"byteOffset":27488,
			"target":34962
		},
		{
			"buffer":0,
			"byteLength":9120,
			"byteOffset":34360,
			"target":34963
		}
	],
	"samplers":[
		{
			"magFilter":9729,
			"minFilter":9987
		}
	],
	"buffers":[
		{
			"byteLength":43480,
			"uri":"ball_1.bin"
		}
	]
}
