{
	"asset":{
		"generator":"Khronos glTF Blender I/O v4.5.47",
		"version":"2.0"
	},
	"scene":0,
	"scenes":[
		{
			"name":"Scene",
			"nodes":[
				0
			]
		}
	],
	"nodes":[
		{
			"mesh":0,
			"name":"Footballer",
			"rotation":[
				0.7071068286895752,
				0,
				0,
				0.7071068286895752
			],
			"scale":[
				0.009999999776482582,
				0.009999999776482582,
				0.009999999776482582
			]
		}
	],
	"materials":[
		{
			"doubleSided":true,
			"name":"Footballer.003",
			"pbrMetallicRoughness":{
				"baseColorTexture":{
					"index":0
				},
				"metallicFactor":0,
				"roughnessFactor":0.5
			}
		}
	],
	"meshes":[
		{
			"name":"Footballer",
			"primitives":[
				{
					"attributes":{
						"POSITION":0,
						"NORMAL":1,
						"TEXCOORD_0":2
					},
					"indices":3,
					"material":0
				}
			]
		}
	],
	"textures":[
		{
			"sampler":0,
			"source":0
		}
	],
	"images":[
		{
			"mimeType":"image/jpeg",
			"name":"CharacterB-Textrure",
			"uri":"textures/CharacterB-Textrure.jpg"
		}
	],
	"accessors":[
		{
			"bufferView":0,
			"componentType":5126,
			"count":3516,
			"max":[
				84.68470764160156,
				40.952823638916016,
				1.1209641570530948e-06
			],
			"min":[
				-84.6847152709961,
				-49.55656051635742,
				-210.39051818847656
			],
			"type":"VEC3"
		},
		{
			"bufferView":1,
			"componentType":5126,
			"count":3516,
			"type":"VEC3"
		},
		{
			"bufferView":2,
			"componentType":5126,
			"count":3516,
			"type":"VEC2"
		},
		{
			"bufferView":3,
			"componentType":5123,
			"count":15216,
			"type":"SCALAR"
		}
	],
	"bufferViews":[
		{
			"buffer":0,
			"byteLength":42192,
			"byteOffset":0,
			"target":34962
		},
		{
			"buffer":0,
			"byteLength":42192,
			"byteOffset":42192,
			"target":34962
		},
		{
			"buffer":0,
			"byteLength":28128,
			"byteOffset":84384,
			"target":34962
		},
		{
			"buffer":0,
			"byteLength":30432,
			"byteOffset":112512,
			"target":34963
		}
	],
	"samplers":[
		{
			"magFilter":9729,
			"minFilter":9987
		}
	],
	"buffers":[
		{
			"byteLength":142944,
			"uri":"CharacterB.bin"
		}
	]
}
