{
	"asset":{
		"generator":"Khronos glTF Blender I/O v4.5.47",
		"version":"2.0"
	},
	"scene":0,
	"scenes":[
		{
			"name":"Scene",
			"nodes":[
				0
			]
		}
	],
	"nodes":[
		{
			"mesh":0,
			"name":"Post_Material_0",
			"rotation":[
				-0.5000000596046448,
				-0.5,
				-0.5,
				0.5
			]
		}
	],
	"materials":[
		{
			"doubleSided":true,
			"name":"Material.001",
			"pbrMetallicRoughness":{
				"metallicFactor":0,
				"roughnessFactor":0.7301210165023804
			}
		},
		{
			"doubleSided":true,
			"name":"Material.002",
			"pbrMetallicRoughness":{
				"baseColorFactor":[
					0.22025500237941742,
					0.22025500237941742,
					0.22025500237941742,
					1
				],
				"metallicFactor":0,
				"roughnessFactor":0.942186713218689
			}
		}
	],
	"meshes":[
		{
			"name":"Post_Material_0",
			"primitives":[
				{
					"attributes":{
						"POSITION":0,
						"NORMAL":1,
						"TEXCOORD_0":2
					},
					"indices":3,
					"material":0
				},
				{
					"attributes":{
						"POSITION":4,
						"NORMAL":5,
						"TEXCOORD_0":6
					},
					"indices":7,
					"material":1
				}
			]
		}
	],
	"accessors":[
		{
			"bufferView":0,
			"componentType":5126,
			"count":3470,
			"max":[
				0.2291666865348816,
				8.235373497009277,
				8.235616683959961
			],
			"min":[
				-8.229167938232422,
				-8.235615730285645,
				-0.23537340760231018
			],
			"type":"VEC3"
		},
		{
			"bufferView":1,
			"componentType":5126,
			"count":3470,
			"type":"VEC3"
		},
		{
			"bufferView":2,
			"componentType":5126,
			"count":3470,
			"type":"VEC2"
		},
		{
			"bufferView":3,
			"componentType":5123,
			"count":20856,
			"type":"SCALAR"
		},
		{
			"bufferView":4,
			"componentType":5126,
			"count":32443,
			"max":[
				-0.040860310196876526,
				8.079999923706055,
				8.010000228881836
			],
			"min":[
				-8.02926254272461,
				-8.079999923706055,
				0.006862354464828968
			],
			"type":"VEC3"
		},
		{
			"bufferView":5,
			"componentType":5126,
			"count":32443,
			"type":"VEC3"
		},
		{
			"bufferView":6,
			"componentType":5126,
			"count":32443,
			"type":"VEC2"
		},
		{
			"bufferView":7,
			"componentType":5123,
			"count":42852,
			"type":"SCALAR"
		}
	],
	"bufferViews":[
		{
			"buffer":0,
			"byteLength":41640,
			"byteOffset":0,
			"target":34962
		},
		{
			"buffer":0,
			"byteLength":41640,
			"byteOffset":41640,
			"target":34962
		},
		{
			"buffer":0,
			"byteLength":27760,
			"byteOffset":83280,
			"target":34962
		},
		{
			"buffer":0,
			"byteLength":41712,
			"byteOffset":111040,
			"target":34963
		},
		{
			"buffer":0,
			"byteLength":389316,
			"byteOffset":152752,
			"target":34962
		},
		{
			"buffer":0,
			"byteLength":389316,
			"byteOffset":542068,
			"target":34962
		},
		{
			"buffer":0,
			"byteLength":259544,
			"byteOffset":931384,
			"target":34962
		},
		{
			"buffer":0,
			"byteLength":85704,
			"byteOffset":1190928,
			"target":34963
		}
	],
	"buffers":[
		{
			"byteLength":1276632,
			"uri":"goal.bin"
		}
	]
}
