{
	"asset":{
		"generator":"Khronos glTF Blender I/O v4.5.47",
		"version":"2.0"
	},
	"scene":0,
	"scenes":[
		{
			"name":"Scene",
			"nodes":[
				0
			]
		}
	],
	"nodes":[
		{
			"mesh":0,
			"name":"stadium.baked.000_stadium_0",
			"rotation":[
				0,
				0.7071067094802856,
				0.7071068286895752,
				1.525401387425518e-07
			],
			"scale":[
				0.25929462909698486,
				0.19523532688617706,
				0.21141140162944794
			],
			"translation":[
				0,
				0,
				0.31151044368743896
			]
		}
	],
	"materials":[
		{
			"doubleSided":true,
			"name":"stadium.001",
			"normalTexture":{
				"index":0
			},
			"pbrMetallicRoughness":{
				"baseColorTexture":{
					"index":1
				},
				"metallicFactor":0,
				"roughnessFactor":0.8211145401000977
			}
		}
	],
	"meshes":[
		{
			"name":"stadium.baked.000_stadium_0.001",
			"primitives":[
				{
					"attributes":{
						"POSITION":0,
						"NORMAL":1,
						"TEXCOORD_0":2
					},
					"indices":3,
					"material":0
				}
			]
		}
	],
	"textures":[
		{
			"sampler":0,
			"source":0
		},
		{
			"sampler":0,
			"source":1
		}
	],
	"images":[
		{
			"mimeType":"image/png",
			"name":"stadium_normal",
			"uri":"textures/stadium_normal.png"
		},
		{
			"mimeType":"image/png",
			"name":"stadium_baseColor",
			"uri":"textures/stadium_baseColor.png"
		}
	],
	"accessors":[
		{
			"bufferView":0,
			"componentType":5126,
			"count":16178,
			"max":[
				93.33760070800781,
				113.9056167602539,
				52.22264099121094
			],
			"min":[
				-93.33760070800781,
				-113.80709838867188,
				4.386602878570557
			],
			"type":"VEC3"
		},
		{
			"bufferView":1,
			"componentType":5126,
			"count":16178,
			"type":"VEC3"
		},
		{
			"bufferView":2,
			"componentType":5126,
			"count":16178,
			"type":"VEC2"
		},
		{
			"bufferView":3,
			"componentType":5123,
			"count":32442,
			"type":"SCALAR"
		}
	],
	"bufferViews":[
		{
			"buffer":0,
			"byteLength":194136,
			"byteOffset":0,
			"target":34962
		},
		{
			"buffer":0,
			"byteLength":194136,
			"byteOffset":194136,
			"target":34962
		},
		{
			"buffer":0,
			"byteLength":129424,
			"byteOffset":388272,
			"target":34962
		},
		{
			"buffer":0,
			"byteLength":64884,
			"byteOffset":517696,
			"target":34963
		}
	],
	"samplers":[
		{
			"magFilter":9729,
			"minFilter":9987
		}
	],
	"buffers":[
		{
			"byteLength":582580,
			"uri":"grassScenario.bin"
		}
	]
}
