{
	"asset":{
		"generator":"Khronos glTF Blender I/O v4.5.47",
		"version":"2.0"
	},
	"extensionsUsed":[
		"KHR_materials_emissive_strength",
		"KHR_texture_transform"
	],
	"extensionsRequired":[
		"KHR_texture_transform"
	],
	"scene":0,
	"scenes":[
		{
			"name":"Scene",
			"nodes":[
				0
			]
		}
	],
	"nodes":[
		{
			"mesh":0,
			"name":"Cube.001_Label_0",
			"rotation":[
				-0.70710688829422,
				0,
				0,
				0.7071066498756409
			],
			"scale":[
				0.8201465010643005,
				0.7802302241325378,
				6.261809825897217
			]
		}
	],
	"materials":[
		{
			"doubleSided":true,
			"name":"Label",
			"pbrMetallicRoughness":{
				"baseColorFactor":[
					0.021807635203003883,
					0.021807635203003883,
					0.021807635203003883,
					1
				],
				"metallicFactor":0,
				"roughnessFactor":0.8211145401000977
			}
		},
		{
			"doubleSided":true,
			"name":"Material.002",
			"pbrMetallicRoughness":{
				"baseColorTexture":{
					"index":0
				},
				"metallicFactor":0,
				"roughnessFactor":0.4000000059604645
			}
		},
		{
			"alphaMode":"MASK",
			"doubleSided":true,
			"name":"Material.005",
			"pbrMetallicRoughness":{
				"baseColorFactor":[
					0.43854400515556335,
					0.43854400515556335,
					0.43854400515556335,
					1
				],
				"baseColorTexture":{
					"extensions":{
						"KHR_texture_transform":{
							"offset":[
								0,
								-1
							],
							"scale":[
								5,
								2
							]
						}
					},
					"index":1
				},
				"metallicFactor":0,
				"roughnessFactor":0.5653350353240967
			}
		},
		{
			"doubleSided":true,
			"emissiveFactor":[
				1,
				1,
				1
			],
			"extensions":{
				"KHR_materials_emissive_strength":{
					"emissiveStrength":4
				}
			},
			"name":"Lights",
			"pbrMetallicRoughness":{
				"baseColorFactor":[
					0.21863000094890594,
					0.16346800327301025,
					0.2467070072889328,
					1
				],
				"metallicFactor":0,
				"roughnessFactor":0.9594812393188477
			}
		},
		{
			"doubleSided":true,
			"name":"Metal",
			"pbrMetallicRoughness":{
				"baseColorFactor":[
					0.10473199933767319,
					0.11601299792528152,
					0.10406800359487534,
					1
				],
				"metallicFactor":0,
				"roughnessFactor":0.9828563928604126
			}
		}
	],
	"meshes":[
		{
			"name":"Cube.001_Label_0",
			"primitives":[
				{
					"attributes":{
						"POSITION":0,
						"NORMAL":1,
						"TEXCOORD_0":2
					},
					"indices":3,
					"material":0
				},
				{
					"attributes":{
						"POSITION":4,
						"NORMAL":5,
						"TEXCOORD_0":6
					},
					"indices":7,
					"material":1
				},
				{
					"attributes":{
						"POSITION":8,
						"NORMAL":9,
						"TEXCOORD_0":10
					},
					"indices":11,
					"material":2
				},
				{
					"attributes":{
						"POSITION":12,
						"NORMAL":13,
						"TEXCOORD_0":14
					},
					"indices":15,
					"material":3
				},
				{
					"attributes":{
						"POSITION":16,
						"NORMAL":17,
						"TEXCOORD_0":18
					},
					"indices":19,
					"material":4
				}
			]
		}
	],
	"textures":[
		{
			"sampler":0,
			"source":0
		},
		{
			"sampler":0,
			"source":1
		}
	],
	"images":[
		{
			"mimeType":"image/png",
			"name":"Material_baseColor",
			"uri":"textures/Material_baseColor.png"
		},
		{
			"mimeType":"image/png",
			"name":"Material.001_baseColor",
			"uri":"textures/Material.001_baseColor.png"
		}
	],
	"accessors":[
		{
			"bufferView":0,
			"componentType":5126,
			"count":92,
			"max":[
				7.247403621673584,
				10.14918041229248,
				3.70196815424606e-08
			],
			"min":[
				-7.222774982452393,
				-11.403291702270508,
				-1.0000001192092896
			],
			"type":"VEC3"
		},
		{
			"bufferView":1,
			"componentType":5126,
			"count":92,
			"type":"VEC3"
		},
		{
			"bufferView":2,
			"componentType":5126,
			"count":92,
			"type":"VEC2"
		},
		{
			"bufferView":3,
			"componentType":5123,
			"count":216,
			"type":"SCALAR"
		},
		{
			"bufferView":4,
			"componentType":5126,
			"count":3062,
			"max":[
				7.127686500549316,
				10.107998847961426,
				0.5160099864006042
			],
			"min":[
				-7.193580627441406,
				-11.378011703491211,
				-0.05714699625968933
			],
			"type":"VEC3"
		},
		{
			"bufferView":5,
			"componentType":5126,
			"count":3062,
			"type":"VEC3"
		},
		{
			"bufferView":6,
			"componentType":5126,
			"count":3062,
			"type":"VEC2"
		},
		{
			"bufferView":7,
			"componentType":5123,
			"count":4536,
			"type":"SCALAR"
		},
		{
			"bufferView":8,
			"componentType":5126,
			"count":72,
			"max":[
				6.8859758377075195,
				9.801873207092285,
				0.49645161628723145
			],
			"min":[
				-6.950987339019775,
				-11.221683502197266,
				-0.04971057176589966
			],
			"type":"VEC3"
		},
		{
			"bufferView":9,
			"componentType":5126,
			"count":72,
			"type":"VEC3"
		},
		{
			"bufferView":10,
			"componentType":5126,
			"count":72,
			"type":"VEC2"
		},
		{
			"bufferView":11,
			"componentType":5123,
			"count":108,
			"type":"SCALAR"
		},
		{
			"bufferView":12,
			"componentType":5126,
			"count":256,
			"max":[
				7.643106937408447,
				10.83531665802002,
				1.0251014232635498
			],
			"min":[
				-7.643110752105713,
				-12.01261043548584,
				0.7687164545059204
			],
			"type":"VEC3"
		},
		{
			"bufferView":13,
			"componentType":5126,
			"count":256,
			"type":"VEC3"
		},
		{
			"bufferView":14,
			"componentType":5126,
			"count":256,
			"type":"VEC2"
		},
		{
			"bufferView":15,
			"componentType":5123,
			"count":384,
			"type":"SCALAR"
		},
		{
			"bufferView":16,
			"componentType":5126,
			"count":1356,
			"max":[
				7.690624237060547,
				10.89738941192627,
				1.0598418712615967
			],
			"min":[
				-7.690628528594971,
				-12.07468318939209,
				-0.0424165278673172
			],
			"type":"VEC3"
		},
		{
			"bufferView":17,
			"componentType":5126,
			"count":1356,
			"type":"VEC3"
		},
		{
			"bufferView":18,
			"componentType":5126,
			"count":1356,
			"type":"VEC2"
		},
		{
			"bufferView":19,
			"componentType":5123,
			"count":7608,
			"type":"SCALAR"
		}
	],
	"bufferViews":[
		{
			"buffer":0,
			"byteLength":1104,
			"byteOffset":0,
			"target":34962
		},
		{
			"buffer":0,
			"byteLength":1104,
			"byteOffset":1104,
			"target":34962
		},
		{
			"buffer":0,
			"byteLength":736,
			"byteOffset":2208,
			"target":34962
		},
		{
			"buffer":0,
			"byteLength":432,
			"byteOffset":2944,
			"target":34963
		},
		{
			"buffer":0,
			"byteLength":36744,
			"byteOffset":3376,
			"target":34962
		},
		{
			"buffer":0,
			"byteLength":36744,
			"byteOffset":40120,
			"target":34962
		},
		{
			"buffer":0,
			"byteLength":24496,
			"byteOffset":76864,
			"target":34962
		},
		{
			"buffer":0,
			"byteLength":9072,
			"byteOffset":101360,
			"target":34963
		},
		{
			"buffer":0,
			"byteLength":864,
			"byteOffset":110432,
			"target":34962
		},
		{
			"buffer":0,
			"byteLength":864,
			"byteOffset":111296,
			"target":34962
		},
		{
			"buffer":0,
			"byteLength":576,
			"byteOffset":112160,
			"target":34962
		},
		{
			"buffer":0,
			"byteLength":216,
			"byteOffset":112736,
			"target":34963
		},
		{
			"buffer":0,
			"byteLength":3072,
			"byteOffset":112952,
			"target":34962
		},
		{
			"buffer":0,
			"byteLength":3072,
			"byteOffset":116024,
			"target":34962
		},
		{
			"buffer":0,
			"byteLength":2048,
			"byteOffset":119096,
			"target":34962
		},
		{
			"buffer":0,
			"byteLength":768,
			"byteOffset":121144,
			"target":34963
		},
		{
			"buffer":0,
			"byteLength":16272,
			"byteOffset":121912,
			"target":34962
		},
		{
			"buffer":0,
			"byteLength":16272,
			"byteOffset":138184,
			"target":34962
		},
		{
			"buffer":0,
			"byteLength":10848,
			"byteOffset":154456,
			"target":34962
		},
		{
			"buffer":0,
			"byteLength":15216,
			"byteOffset":165304,
			"target":34963
		}
	],
	"samplers":[
		{
			"magFilter":9729,
			"minFilter":9987
		}
	],
	"buffers":[
		{
			"byteLength":180520,
			"uri":"generalScenario.bin"
		}
	]
}
